<svg width="25" height="25" viewBox="0 0 25 25" fill="none" xmlns="http://www.w3.org/2000/svg">
<path d="M18.2578 2C18.9078 1.99939 19.5513 2.14413 20.1506 2.42575C20.75 2.70736 21.2931 3.12018 21.7482 3.64C22.6859 4.70638 23.2115 6.14316 23.2115 7.64C23.2115 9.13685 22.6859 10.5736 21.7482 11.64L12.5 22.13L3.25179 11.64C2.3141 10.5736 1.78849 9.13685 1.78849 7.64C1.78849 6.14316 2.3141 4.70638 3.25179 3.64C3.70714 3.12055 4.25032 2.70795 4.84961 2.42629C5.4489 2.14464 6.09229 1.99957 6.74218 1.99957C7.39208 1.99957 8.03546 2.14464 8.63475 2.42629C9.23405 2.70795 9.77723 3.12055 10.2326 3.64L12.5 6.24L14.7585 3.66C15.2122 3.13398 15.7559 2.71586 16.3572 2.43064C16.9584 2.14542 17.6049 1.99895 18.2578 2ZM18.2578 2.68285e-06C17.3702 -0.000840038 16.4913 0.196858 15.6727 0.581505C14.8541 0.966151 14.1124 1.53 13.4909 2.24L12.5 3.36L11.5091 2.24C10.8869 1.53129 10.1449 0.968412 9.3265 0.584193C8.50808 0.199974 7.62957 0.00209743 6.74218 0.00209743C5.8548 0.00209743 4.97629 0.199974 4.15787 0.584193C3.33945 0.968412 2.59749 1.53129 1.97525 2.24C0.709312 3.68363 0 5.62636 0 7.65C0 9.67364 0.709312 11.6164 1.97525 13.06L12.5 25L23.0248 13.06C24.2907 11.6164 25 9.67364 25 7.65C25 5.62636 24.2907 3.68363 23.0248 2.24C22.4027 1.53091 21.6608 0.967646 20.8423 0.583064C20.0239 0.198482 19.1453 0.000276098 18.2578 2.68285e-06Z" fill="black"/>
</svg>
