<svg width="24" height="20" viewBox="0 0 24 20" fill="none" xmlns="http://www.w3.org/2000/svg">
<path d="M23.643 2.93702C22.808 3.30702 21.911 3.55702 20.968 3.67002C21.941 3.08781 22.669 2.17148 23.016 1.09202C22.1019 1.63501 21.1014 2.01721 20.058 2.22202C19.3564 1.47288 18.4271 0.976342 17.4143 0.80949C16.4016 0.642638 15.3621 0.814807 14.4572 1.29927C13.5524 1.78373 12.8328 2.55338 12.4102 3.48872C11.9875 4.42406 11.8855 5.47277 12.12 6.47202C10.2677 6.37901 8.45564 5.89757 6.80144 5.05892C5.14723 4.22028 3.68785 3.04318 2.51801 1.60402C2.11801 2.29402 1.88801 3.09402 1.88801 3.94602C1.88757 4.71301 2.07644 5.46826 2.43789 6.14475C2.79934 6.82124 3.32217 7.39805 3.96001 7.82402C3.22029 7.80048 2.49688 7.6006 1.85001 7.24102V7.30102C1.84994 8.37676 2.22204 9.41939 2.90319 10.252C3.58434 11.0846 4.53258 11.6559 5.58701 11.869C4.9008 12.0547 4.18135 12.0821 3.48301 11.949C3.78051 12.8746 4.36001 13.684 5.14038 14.2639C5.92075 14.8438 6.86293 15.1652 7.83501 15.183C6.18484 16.4784 4.1469 17.1811 2.04901 17.178C1.67739 17.1781 1.30609 17.1564 0.937012 17.113C3.06649 18.4822 5.54535 19.2088 8.07701 19.206C16.647 19.206 21.332 12.108 21.332 5.95202C21.332 5.75202 21.327 5.55002 21.318 5.35002C22.2293 4.69099 23.0159 3.87491 23.641 2.94002L23.643 2.93702Z" fill="#1DA1F2"/>
</svg>
