<svg width="25" height="25" viewBox="0 0 25 25" fill="none" xmlns="http://www.w3.org/2000/svg">
<path fill-rule="evenodd" clip-rule="evenodd" d="M12.5 23.75C18.7131 23.75 23.75 18.7131 23.75 12.5C23.75 6.28686 18.7131 1.25 12.5 1.25C6.28687 1.25 1.25 6.28686 1.25 12.5C1.25 18.7131 6.28687 23.75 12.5 23.75ZM12.5 25C19.4037 25 25 19.4037 25 12.5C25 5.59624 19.4037 0 12.5 0C5.59625 0 0 5.59624 0 12.5C0 19.4037 5.59625 25 12.5 25Z" fill="black"/>
<path d="M5 19.7688C5 19.1232 5.4825 18.5775 6.125 18.5063C10.9469 17.9725 14.075 18.0207 18.8862 18.5182C19.1265 18.5434 19.3542 18.638 19.5416 18.7906C19.7289 18.9431 19.8678 19.1468 19.9412 19.377C20.0147 19.6071 20.0195 19.8537 19.9551 20.0865C19.8908 20.3194 19.76 20.5284 19.5788 20.6882C13.9006 25.6375 10.6556 25.5694 5.4 20.6932C5.14375 20.4557 5 20.1182 5 19.7694V19.7688Z" fill="black"/>
<path fill-rule="evenodd" clip-rule="evenodd" d="M18.8219 19.1394C14.0488 18.6456 10.9656 18.5994 6.19313 19.1275C6.03603 19.1458 5.8912 19.2214 5.78638 19.3398C5.68155 19.4583 5.62409 19.6112 5.625 19.7694C5.625 19.9481 5.69938 20.1175 5.825 20.235C8.43 22.6512 10.4038 23.7431 12.3331 23.75C14.2694 23.7568 16.3494 22.6737 19.1681 20.2175C19.2577 20.1378 19.3221 20.0338 19.3537 19.9181C19.3852 19.8025 19.3825 19.6801 19.3458 19.566C19.3092 19.4519 19.2401 19.3508 19.1471 19.2752C19.0541 19.1996 18.9411 19.1526 18.8219 19.14V19.1394ZM6.05625 17.885C10.9288 17.3456 14.1025 17.3944 18.9513 17.8962C19.3127 17.934 19.6553 18.0763 19.9371 18.3057C20.2189 18.5351 20.4277 18.8418 20.538 19.188C20.6482 19.5343 20.6551 19.9052 20.5577 20.2553C20.4604 20.6055 20.2631 20.9196 19.99 21.1594C17.1306 23.6518 14.7494 25.0093 12.3294 25C9.9025 24.9912 7.62625 23.6106 4.97563 21.1512C4.78585 20.9745 4.63456 20.7605 4.53122 20.5226C4.42787 20.2847 4.3747 20.0281 4.375 19.7687C4.37409 19.3028 4.54513 18.8528 4.85536 18.5051C5.16558 18.1574 5.59318 17.9364 6.05625 17.8844V17.885Z" fill="black"/>
<path d="M17.5 9.99993C17.5 11.326 16.9732 12.5978 16.0355 13.5355C15.0979 14.4731 13.8261 14.9999 12.5 14.9999C11.1739 14.9999 9.90215 14.4731 8.96447 13.5355C8.02678 12.5978 7.5 11.326 7.5 9.99993C7.5 8.67385 8.02678 7.40208 8.96447 6.4644C9.90215 5.52672 11.1739 4.99994 12.5 4.99994C13.8261 4.99994 15.0979 5.52672 16.0355 6.4644C16.9732 7.40208 17.5 8.67385 17.5 9.99993Z" fill="black"/>
<path fill-rule="evenodd" clip-rule="evenodd" d="M12.5 13.7499C13.4946 13.7499 14.4484 13.3548 15.1517 12.6516C15.8549 11.9483 16.25 10.9945 16.25 9.99993C16.25 9.00537 15.8549 8.05154 15.1517 7.34828C14.4484 6.64502 13.4946 6.24994 12.5 6.24994C11.5054 6.24994 10.5516 6.64502 9.84835 7.34828C9.14509 8.05154 8.75 9.00537 8.75 9.99993C8.75 10.9945 9.14509 11.9483 9.84835 12.6516C10.5516 13.3548 11.5054 13.7499 12.5 13.7499ZM12.5 14.9999C13.8261 14.9999 15.0979 14.4731 16.0355 13.5355C16.9732 12.5978 17.5 11.326 17.5 9.99993C17.5 8.67385 16.9732 7.40208 16.0355 6.4644C15.0979 5.52672 13.8261 4.99994 12.5 4.99994C11.1739 4.99994 9.90215 5.52672 8.96447 6.4644C8.02678 7.40208 7.5 8.67385 7.5 9.99993C7.5 11.326 8.02678 12.5978 8.96447 13.5355C9.90215 14.4731 11.1739 14.9999 12.5 14.9999Z" fill="black"/>
</svg>
